<svg xmlns="http://www.w3.org/2000/svg" version="1.1" xmlns:xlink="http://www.w3.org/1999/xlink" xmlns:svgjs="http://svgjs.dev/svgjs" width="1440" height="720" preserveAspectRatio="none" viewBox="0 0 1440 720"><g mask="url(&quot;#SvgjsMask1004&quot;)" fill="none"><rect width="1440" height="720" x="0" y="0" fill="rgba(17, 17, 17, 1)"></rect><path d="M65.81 303.33L130.77 340.83L130.77 415.83L65.81 453.33L0.86 415.83L0.86 340.83zM65.81 528.33L130.77 565.83L130.77 640.83L65.81 678.33L0.86 640.83L0.86 565.83zM130.77 -34.17L195.72 3.33L195.72 78.33L130.77 115.83L65.81 78.33L65.81 3.33zM195.72 528.33L260.68 565.83L260.68 640.83L195.72 678.33L130.77 640.83L130.77 565.83zM260.68 -34.17L325.63 3.33L325.63 78.33L260.68 115.83L195.72 78.33L195.72 3.33zM325.63 528.33L390.58 565.83L390.58 640.83L325.63 678.33L260.68 640.83L260.68 565.83zM455.54 303.33L520.49 340.83L520.49 415.83L455.54 453.33L390.58 415.83L390.58 340.83zM390.58 640.83L455.54 678.33L455.54 753.33L390.58 790.83L325.63 753.33L325.63 678.33zM585.44 528.33L650.4 565.83L650.4 640.83L585.44 678.33L520.49 640.83L520.49 565.83zM650.4 -34.17L715.35 3.33L715.35 78.33L650.4 115.83L585.44 78.33L585.44 3.33zM715.35 303.33L780.31 340.83L780.31 415.83L715.35 453.33L650.4 415.83L650.4 340.83zM715.35 528.33L780.31 565.83L780.31 640.83L715.35 678.33L650.4 640.83L650.4 565.83zM650.4 640.83L715.35 678.33L715.35 753.33L650.4 790.83L585.44 753.33L585.44 678.33zM780.3 190.83L845.26 228.33L845.26 303.33L780.3 340.83L715.35 303.33L715.35 228.33zM780.3 640.83L845.26 678.33L845.26 753.33L780.3 790.83L715.35 753.33L715.35 678.33zM910.21 -34.17L975.17 3.33L975.17 78.33L910.21 115.83L845.26 78.33L845.26 3.33zM910.21 190.83L975.17 228.33L975.17 303.33L910.21 340.83L845.26 303.33L845.26 228.33zM1040.12 415.83L1105.07 453.33L1105.07 528.33L1040.12 565.83L975.17 528.33L975.17 453.33zM1040.12 640.83L1105.07 678.33L1105.07 753.33L1040.12 790.83L975.17 753.33L975.17 678.33zM1170.03 -34.17L1234.98 3.33L1234.98 78.33L1170.03 115.83L1105.07 78.33L1105.07 3.33zM1170.03 415.83L1234.98 453.33L1234.98 528.33L1170.03 565.83L1105.07 528.33L1105.07 453.33zM1364.89 303.33L1429.84 340.83L1429.84 415.83L1364.89 453.33L1299.93 415.83L1299.93 340.83zM1299.93 640.83L1364.89 678.33L1364.89 753.33L1299.93 790.83L1234.98 753.33L1234.98 678.33zM1429.84 415.83L1494.8 453.33L1494.8 528.33L1429.84 565.83L1364.89 528.33L1364.89 453.33zM1429.84 640.83L1494.8 678.33L1494.8 753.33L1429.84 790.83L1364.89 753.33L1364.89 678.33z" stroke="rgba(0, 128, 255, 1)" stroke-width="2"></path><path d="M58.31 303.33 a7.5 7.5 0 1 0 15 0 a7.5 7.5 0 1 0 -15 0zM123.27 340.83 a7.5 7.5 0 1 0 15 0 a7.5 7.5 0 1 0 -15 0zM123.27 415.83 a7.5 7.5 0 1 0 15 0 a7.5 7.5 0 1 0 -15 0zM58.31 453.33 a7.5 7.5 0 1 0 15 0 a7.5 7.5 0 1 0 -15 0zM-6.64 415.83 a7.5 7.5 0 1 0 15 0 a7.5 7.5 0 1 0 -15 0zM-6.64 340.83 a7.5 7.5 0 1 0 15 0 a7.5 7.5 0 1 0 -15 0zM58.31 528.33 a7.5 7.5 0 1 0 15 0 a7.5 7.5 0 1 0 -15 0zM123.27 565.83 a7.5 7.5 0 1 0 15 0 a7.5 7.5 0 1 0 -15 0zM123.27 640.83 a7.5 7.5 0 1 0 15 0 a7.5 7.5 0 1 0 -15 0zM58.31 678.33 a7.5 7.5 0 1 0 15 0 a7.5 7.5 0 1 0 -15 0zM-6.64 640.83 a7.5 7.5 0 1 0 15 0 a7.5 7.5 0 1 0 -15 0zM-6.64 565.83 a7.5 7.5 0 1 0 15 0 a7.5 7.5 0 1 0 -15 0zM123.27 -34.17 a7.5 7.5 0 1 0 15 0 a7.5 7.5 0 1 0 -15 0zM188.22 3.33 a7.5 7.5 0 1 0 15 0 a7.5 7.5 0 1 0 -15 0zM188.22 78.33 a7.5 7.5 0 1 0 15 0 a7.5 7.5 0 1 0 -15 0zM123.27 115.83 a7.5 7.5 0 1 0 15 0 a7.5 7.5 0 1 0 -15 0zM58.31 78.33 a7.5 7.5 0 1 0 15 0 a7.5 7.5 0 1 0 -15 0zM58.31 3.33 a7.5 7.5 0 1 0 15 0 a7.5 7.5 0 1 0 -15 0zM188.22 528.33 a7.5 7.5 0 1 0 15 0 a7.5 7.5 0 1 0 -15 0zM253.18 565.83 a7.5 7.5 0 1 0 15 0 a7.5 7.5 0 1 0 -15 0zM253.18 640.83 a7.5 7.5 0 1 0 15 0 a7.5 7.5 0 1 0 -15 0zM188.22 678.33 a7.5 7.5 0 1 0 15 0 a7.5 7.5 0 1 0 -15 0zM253.18 -34.17 a7.5 7.5 0 1 0 15 0 a7.5 7.5 0 1 0 -15 0zM318.13 3.33 a7.5 7.5 0 1 0 15 0 a7.5 7.5 0 1 0 -15 0zM318.13 78.33 a7.5 7.5 0 1 0 15 0 a7.5 7.5 0 1 0 -15 0zM253.18 115.83 a7.5 7.5 0 1 0 15 0 a7.5 7.5 0 1 0 -15 0zM318.13 528.33 a7.5 7.5 0 1 0 15 0 a7.5 7.5 0 1 0 -15 0zM383.08 565.83 a7.5 7.5 0 1 0 15 0 a7.5 7.5 0 1 0 -15 0zM383.08 640.83 a7.5 7.5 0 1 0 15 0 a7.5 7.5 0 1 0 -15 0zM318.13 678.33 a7.5 7.5 0 1 0 15 0 a7.5 7.5 0 1 0 -15 0zM448.04 303.33 a7.5 7.5 0 1 0 15 0 a7.5 7.5 0 1 0 -15 0zM512.99 340.83 a7.5 7.5 0 1 0 15 0 a7.5 7.5 0 1 0 -15 0zM512.99 415.83 a7.5 7.5 0 1 0 15 0 a7.5 7.5 0 1 0 -15 0zM448.04 453.33 a7.5 7.5 0 1 0 15 0 a7.5 7.5 0 1 0 -15 0zM383.08 415.83 a7.5 7.5 0 1 0 15 0 a7.5 7.5 0 1 0 -15 0zM383.08 340.83 a7.5 7.5 0 1 0 15 0 a7.5 7.5 0 1 0 -15 0zM448.04 678.33 a7.5 7.5 0 1 0 15 0 a7.5 7.5 0 1 0 -15 0zM448.04 753.33 a7.5 7.5 0 1 0 15 0 a7.5 7.5 0 1 0 -15 0zM383.08 790.83 a7.5 7.5 0 1 0 15 0 a7.5 7.5 0 1 0 -15 0zM318.13 753.33 a7.5 7.5 0 1 0 15 0 a7.5 7.5 0 1 0 -15 0zM577.94 528.33 a7.5 7.5 0 1 0 15 0 a7.5 7.5 0 1 0 -15 0zM642.9 565.83 a7.5 7.5 0 1 0 15 0 a7.5 7.5 0 1 0 -15 0zM642.9 640.83 a7.5 7.5 0 1 0 15 0 a7.5 7.5 0 1 0 -15 0zM577.94 678.33 a7.5 7.5 0 1 0 15 0 a7.5 7.5 0 1 0 -15 0zM512.99 640.83 a7.5 7.5 0 1 0 15 0 a7.5 7.5 0 1 0 -15 0zM512.99 565.83 a7.5 7.5 0 1 0 15 0 a7.5 7.5 0 1 0 -15 0zM642.9 -34.17 a7.5 7.5 0 1 0 15 0 a7.5 7.5 0 1 0 -15 0zM707.85 3.33 a7.5 7.5 0 1 0 15 0 a7.5 7.5 0 1 0 -15 0zM707.85 78.33 a7.5 7.5 0 1 0 15 0 a7.5 7.5 0 1 0 -15 0zM642.9 115.83 a7.5 7.5 0 1 0 15 0 a7.5 7.5 0 1 0 -15 0zM577.94 78.33 a7.5 7.5 0 1 0 15 0 a7.5 7.5 0 1 0 -15 0zM577.94 3.33 a7.5 7.5 0 1 0 15 0 a7.5 7.5 0 1 0 -15 0zM707.85 303.33 a7.5 7.5 0 1 0 15 0 a7.5 7.5 0 1 0 -15 0zM772.81 340.83 a7.5 7.5 0 1 0 15 0 a7.5 7.5 0 1 0 -15 0zM772.81 415.83 a7.5 7.5 0 1 0 15 0 a7.5 7.5 0 1 0 -15 0zM707.85 453.33 a7.5 7.5 0 1 0 15 0 a7.5 7.5 0 1 0 -15 0zM642.9 415.83 a7.5 7.5 0 1 0 15 0 a7.5 7.5 0 1 0 -15 0zM642.9 340.83 a7.5 7.5 0 1 0 15 0 a7.5 7.5 0 1 0 -15 0zM707.85 528.33 a7.5 7.5 0 1 0 15 0 a7.5 7.5 0 1 0 -15 0zM772.81 565.83 a7.5 7.5 0 1 0 15 0 a7.5 7.5 0 1 0 -15 0zM772.81 640.83 a7.5 7.5 0 1 0 15 0 a7.5 7.5 0 1 0 -15 0zM707.85 678.33 a7.5 7.5 0 1 0 15 0 a7.5 7.5 0 1 0 -15 0zM707.85 753.33 a7.5 7.5 0 1 0 15 0 a7.5 7.5 0 1 0 -15 0zM642.9 790.83 a7.5 7.5 0 1 0 15 0 a7.5 7.5 0 1 0 -15 0zM577.94 753.33 a7.5 7.5 0 1 0 15 0 a7.5 7.5 0 1 0 -15 0zM772.8 190.83 a7.5 7.5 0 1 0 15 0 a7.5 7.5 0 1 0 -15 0zM837.76 228.33 a7.5 7.5 0 1 0 15 0 a7.5 7.5 0 1 0 -15 0zM837.76 303.33 a7.5 7.5 0 1 0 15 0 a7.5 7.5 0 1 0 -15 0zM772.8 340.83 a7.5 7.5 0 1 0 15 0 a7.5 7.5 0 1 0 -15 0zM707.85 228.33 a7.5 7.5 0 1 0 15 0 a7.5 7.5 0 1 0 -15 0zM772.8 640.83 a7.5 7.5 0 1 0 15 0 a7.5 7.5 0 1 0 -15 0zM837.76 678.33 a7.5 7.5 0 1 0 15 0 a7.5 7.5 0 1 0 -15 0zM837.76 753.33 a7.5 7.5 0 1 0 15 0 a7.5 7.5 0 1 0 -15 0zM772.8 790.83 a7.5 7.5 0 1 0 15 0 a7.5 7.5 0 1 0 -15 0zM902.71 -34.17 a7.5 7.5 0 1 0 15 0 a7.5 7.5 0 1 0 -15 0zM967.67 3.33 a7.5 7.5 0 1 0 15 0 a7.5 7.5 0 1 0 -15 0zM967.67 78.33 a7.5 7.5 0 1 0 15 0 a7.5 7.5 0 1 0 -15 0zM902.71 115.83 a7.5 7.5 0 1 0 15 0 a7.5 7.5 0 1 0 -15 0zM837.76 78.33 a7.5 7.5 0 1 0 15 0 a7.5 7.5 0 1 0 -15 0zM837.76 3.33 a7.5 7.5 0 1 0 15 0 a7.5 7.5 0 1 0 -15 0zM902.71 190.83 a7.5 7.5 0 1 0 15 0 a7.5 7.5 0 1 0 -15 0zM967.67 228.33 a7.5 7.5 0 1 0 15 0 a7.5 7.5 0 1 0 -15 0zM967.67 303.33 a7.5 7.5 0 1 0 15 0 a7.5 7.5 0 1 0 -15 0zM902.71 340.83 a7.5 7.5 0 1 0 15 0 a7.5 7.5 0 1 0 -15 0zM1032.62 415.83 a7.5 7.5 0 1 0 15 0 a7.5 7.5 0 1 0 -15 0zM1097.57 453.33 a7.5 7.5 0 1 0 15 0 a7.5 7.5 0 1 0 -15 0zM1097.57 528.33 a7.5 7.5 0 1 0 15 0 a7.5 7.5 0 1 0 -15 0zM1032.62 565.83 a7.5 7.5 0 1 0 15 0 a7.5 7.5 0 1 0 -15 0zM967.67 528.33 a7.5 7.5 0 1 0 15 0 a7.5 7.5 0 1 0 -15 0zM967.67 453.33 a7.5 7.5 0 1 0 15 0 a7.5 7.5 0 1 0 -15 0zM1032.62 640.83 a7.5 7.5 0 1 0 15 0 a7.5 7.5 0 1 0 -15 0zM1097.57 678.33 a7.5 7.5 0 1 0 15 0 a7.5 7.5 0 1 0 -15 0zM1097.57 753.33 a7.5 7.5 0 1 0 15 0 a7.5 7.5 0 1 0 -15 0zM1032.62 790.83 a7.5 7.5 0 1 0 15 0 a7.5 7.5 0 1 0 -15 0zM967.67 753.33 a7.5 7.5 0 1 0 15 0 a7.5 7.5 0 1 0 -15 0zM967.67 678.33 a7.5 7.5 0 1 0 15 0 a7.5 7.5 0 1 0 -15 0zM1162.53 -34.17 a7.5 7.5 0 1 0 15 0 a7.5 7.5 0 1 0 -15 0zM1227.48 3.33 a7.5 7.5 0 1 0 15 0 a7.5 7.5 0 1 0 -15 0zM1227.48 78.33 a7.5 7.5 0 1 0 15 0 a7.5 7.5 0 1 0 -15 0zM1162.53 115.83 a7.5 7.5 0 1 0 15 0 a7.5 7.5 0 1 0 -15 0zM1097.57 78.33 a7.5 7.5 0 1 0 15 0 a7.5 7.5 0 1 0 -15 0zM1097.57 3.33 a7.5 7.5 0 1 0 15 0 a7.5 7.5 0 1 0 -15 0zM1162.53 415.83 a7.5 7.5 0 1 0 15 0 a7.5 7.5 0 1 0 -15 0zM1227.48 453.33 a7.5 7.5 0 1 0 15 0 a7.5 7.5 0 1 0 -15 0zM1227.48 528.33 a7.5 7.5 0 1 0 15 0 a7.5 7.5 0 1 0 -15 0zM1162.53 565.83 a7.5 7.5 0 1 0 15 0 a7.5 7.5 0 1 0 -15 0zM1357.39 303.33 a7.5 7.5 0 1 0 15 0 a7.5 7.5 0 1 0 -15 0zM1422.34 340.83 a7.5 7.5 0 1 0 15 0 a7.5 7.5 0 1 0 -15 0zM1422.34 415.83 a7.5 7.5 0 1 0 15 0 a7.5 7.5 0 1 0 -15 0zM1357.39 453.33 a7.5 7.5 0 1 0 15 0 a7.5 7.5 0 1 0 -15 0zM1292.43 415.83 a7.5 7.5 0 1 0 15 0 a7.5 7.5 0 1 0 -15 0zM1292.43 340.83 a7.5 7.5 0 1 0 15 0 a7.5 7.5 0 1 0 -15 0zM1292.43 640.83 a7.5 7.5 0 1 0 15 0 a7.5 7.5 0 1 0 -15 0zM1357.39 678.33 a7.5 7.5 0 1 0 15 0 a7.5 7.5 0 1 0 -15 0zM1357.39 753.33 a7.5 7.5 0 1 0 15 0 a7.5 7.5 0 1 0 -15 0zM1292.43 790.83 a7.5 7.5 0 1 0 15 0 a7.5 7.5 0 1 0 -15 0zM1227.48 753.33 a7.5 7.5 0 1 0 15 0 a7.5 7.5 0 1 0 -15 0zM1227.48 678.33 a7.5 7.5 0 1 0 15 0 a7.5 7.5 0 1 0 -15 0zM1487.3 453.33 a7.5 7.5 0 1 0 15 0 a7.5 7.5 0 1 0 -15 0zM1487.3 528.33 a7.5 7.5 0 1 0 15 0 a7.5 7.5 0 1 0 -15 0zM1422.34 565.83 a7.5 7.5 0 1 0 15 0 a7.5 7.5 0 1 0 -15 0zM1357.39 528.33 a7.5 7.5 0 1 0 15 0 a7.5 7.5 0 1 0 -15 0zM1422.34 640.83 a7.5 7.5 0 1 0 15 0 a7.5 7.5 0 1 0 -15 0zM1487.3 678.33 a7.5 7.5 0 1 0 15 0 a7.5 7.5 0 1 0 -15 0zM1487.3 753.33 a7.5 7.5 0 1 0 15 0 a7.5 7.5 0 1 0 -15 0zM1422.34 790.83 a7.5 7.5 0 1 0 15 0 a7.5 7.5 0 1 0 -15 0z" fill="rgba(0, 128, 255, 1)"></path><path d="M43.83 289.83L87.13 314.83L87.13 364.83L43.83 389.83L0.53 364.83L0.53 314.83zM43.83 589.83L87.13 614.83L87.13 664.83L43.83 689.83L0.53 664.83L0.53 614.83zM173.74 514.83L217.04 539.83L217.04 589.83L173.74 614.83L130.44 589.83L130.44 539.83zM217.04 439.83L260.34 464.83L260.34 514.83L217.04 539.83L173.74 514.83L173.74 464.83zM346.95 514.83L390.25 539.83L390.25 589.83L346.95 614.83L303.64 589.83L303.64 539.83zM390.25 139.83L433.55 164.83L433.55 214.83L390.25 239.83L346.95 214.83L346.95 164.83zM476.86 -10.17L520.16 14.83L520.16 64.83L476.86 89.83L433.55 64.83L433.55 14.83zM520.16 64.83L563.46 89.83L563.46 139.83L520.16 164.83L476.86 139.83L476.86 89.83zM520.16 514.83L563.46 539.83L563.46 589.83L520.16 614.83L476.86 589.83L476.86 539.83zM563.46 139.83L606.76 164.83L606.76 214.83L563.46 239.83L520.16 214.83L520.16 164.83zM606.76 664.83L650.07 689.83L650.07 739.83L606.76 764.83L563.46 739.83L563.46 689.83zM650.07 -10.17L693.37 14.83L693.37 64.83L650.07 89.83L606.76 64.83L606.76 14.83zM779.97 514.83L823.28 539.83L823.28 589.83L779.97 614.83L736.67 589.83L736.67 539.83zM823.28 -10.17L866.58 14.83L866.58 64.83L823.28 89.83L779.97 64.83L779.97 14.83zM866.58 64.83L909.88 89.83L909.88 139.83L866.58 164.83L823.28 139.83L823.28 89.83zM953.18 64.83L996.49 89.83L996.49 139.83L953.18 164.83L909.88 139.83L909.88 89.83zM909.88 739.83L953.18 764.83L953.18 814.83L909.88 839.83L866.58 814.83L866.58 764.83zM996.49 439.83L1039.79 464.83L1039.79 514.83L996.49 539.83L953.18 514.83L953.18 464.83zM1299.6 214.83L1342.9 239.83L1342.9 289.83L1299.6 314.83L1256.3 289.83L1256.3 239.83zM1299.6 514.83L1342.9 539.83L1342.9 589.83L1299.6 614.83L1256.3 589.83L1256.3 539.83zM1342.9 139.83L1386.21 164.83L1386.21 214.83L1342.9 239.83L1299.6 214.83L1299.6 164.83zM1386.21 364.83L1429.51 389.83L1429.51 439.83L1386.21 464.83L1342.9 439.83L1342.9 389.83zM1386.21 664.83L1429.51 689.83L1429.51 739.83L1386.21 764.83L1342.9 739.83L1342.9 689.83zM1429.51 139.83L1472.81 164.83L1472.81 214.83L1429.51 239.83L1386.21 214.83L1386.21 164.83zM1429.51 589.83L1472.81 614.83L1472.81 664.83L1429.51 689.83L1386.21 664.83L1386.21 614.83zM1429.51 739.83L1472.81 764.83L1472.81 814.83L1429.51 839.83L1386.21 814.83L1386.21 764.83z" stroke="rgba(6, 80, 156, 0.93)" stroke-width="2"></path></g><defs><mask id="SvgjsMask1004"><rect width="1440" height="720" fill="#ffffff"></rect></mask></defs></svg>